<svg width="203" height="33" viewBox="0 0 203 33" fill="none" xmlns="http://www.w3.org/2000/svg">
<g id="Apleona_Logo logo" clip-path="url(#clip0_1_223)">
<g id="Ebene 2">
<g id="Ebene 1">
<path id="Vector" d="M45.2874 1.3923H33.4722V31.8857H39.0891V22.4885H44.7094C51.4007 22.4885 55.7392 18.331 55.7392 11.9162C55.7392 5.50147 51.6455 1.3923 45.2874 1.3923ZM44.9134 17.2489H39.0891V6.63195H44.7876C48.2556 6.63195 50.3637 8.62146 50.3637 11.9162C50.3637 15.211 48.174 17.2489 44.9236 17.2489H44.9134ZM60.8257 31.8857H80.6923V26.3299H66.4766V1.3923H60.8155L60.8257 31.8857ZM85.5272 31.8857H106.676V26.3299H91.1339V19.2347H104.353V13.8165H91.1339V6.8588H106.458V1.3923H85.517L85.5272 31.8857ZM125.379 32.4584C133.641 32.4584 139.836 25.6829 139.836 16.6464C139.836 7.60997 133.805 0.849365 125.379 0.849365C117.117 0.849365 110.922 7.62485 110.922 16.6613C110.922 25.6978 116.951 32.4584 125.379 32.4584ZM125.379 26.9026C120.381 26.9026 116.539 22.4736 116.539 16.6018C116.539 10.73 120.381 6.30099 125.379 6.30099C130.377 6.30099 134.219 10.73 134.219 16.6018C134.219 22.4736 130.418 26.9026 125.379 26.9026Z" fill="#1971C2"/>
<path id="Vector_2" d="M168.734 31.8856H169.89V1.39225H164.232V19.4614L145.892 1.16541H144.736V31.8856H150.353V13.7235L168.734 31.8856Z" fill="#1971C2"/>
<path id="Vector_3" d="M196.161 31.8856H202.482L188.27 1.16541H187.114L173.031 31.8856H179.266L181.211 27.2335H194.217L196.161 31.8856ZM187.61 11.9162L192.217 22.1724H183.204L187.61 11.9162Z" fill="#1971C2"/>
<path id="Vector_4" d="M24.0028 31.8856H30.3337L16.1248 1.16541H14.9688L0.882324 31.8856H7.11804L9.06288 27.2335H22.0681L24.0028 31.8856ZM15.4618 11.9162L20.0689 22.1724H11.0587L15.4618 11.9162Z" fill="#1971C2"/>
</g>
</g>
</g>
<defs>
<clipPath id="clip0_1_223">
<rect width="201.6" height="31.6239" fill="white" transform="translate(0.882324 0.849487)"/>
</clipPath>
</defs>
</svg>
