<svg width="163" height="48" viewBox="0 0 163 48" fill="none" xmlns="http://www.w3.org/2000/svg">
<g id="linkedin logo" clip-path="url(#clip0_1_230)">
<path id="Vector" d="M120.331 4.00633C120.331 2.15029 121.742 0.643921 123.483 0.643921H159.825C161.566 0.643921 162.977 2.15029 162.977 4.00633V44.2204C162.977 46.077 161.566 47.5822 159.825 47.5822H123.483C121.742 47.5822 120.331 46.077 120.331 44.221V4.00571V4.00633Z" fill="#1971C2"/>
<path id="Vector_2" d="M0.951416 39.9617H18.7488V33.5705H7.39325V9.18966H0.951416V39.9617ZM27.7595 39.9617V18.7666H21.3182V39.9617H27.7595ZM24.5394 15.8732C26.7852 15.8732 28.1833 14.2456 28.1833 12.2104C28.1416 10.1309 26.7852 8.54944 24.5822 8.54944C22.3786 8.54944 20.9377 10.1315 20.9377 12.2104C20.9377 14.2456 22.3358 15.8732 24.4972 15.8732H24.5394V15.8732ZM30.7499 39.9617H37.1912V28.1249C37.1912 27.4915 37.2328 26.858 37.4034 26.4068C37.8683 25.1411 38.9281 23.8299 40.7079 23.8299C43.0392 23.8299 43.9718 25.7739 43.9718 28.6217V39.961H50.412V27.8085C50.412 21.2979 47.2341 18.2685 42.9959 18.2685C39.5214 18.2685 37.9955 20.393 37.1478 21.8402H37.1912V18.7666H30.7499C30.8349 20.7556 30.7499 39.9617 30.7499 39.9617V39.9617ZM59.4992 9.18966H53.0579V39.9617H59.4992V33.0897L61.109 30.8729L66.1521 39.9617H74.0759L65.6017 26.8044L73.0167 17.8536H65.2628C65.2628 17.8536 59.9658 25.8613 59.4992 26.8118V9.18966Z" fill="#1971C2"/>
<path id="Vector_3" d="M91.3028 31.1203C91.3878 30.5761 91.515 29.5321 91.515 28.3514C91.515 22.8725 88.972 17.31 82.2769 17.31C75.1152 17.31 71.8096 23.5047 71.8096 29.1233C71.8096 36.0722 75.8356 40.4116 82.8696 40.4116C85.667 40.4116 88.251 39.961 90.3707 39.0111L89.5231 34.3584C87.785 34.9888 86.0052 35.3046 83.8022 35.3046C80.7938 35.3046 78.167 33.9533 77.9548 31.0748L91.3028 31.1191V31.1203V31.1203ZM77.9126 26.3544C78.082 24.5457 79.1846 21.8771 81.9387 21.8771C84.8621 21.8771 85.5409 24.7261 85.5409 26.3544H77.9131H77.9126ZM107.414 9.18958V19.8419H107.329C106.396 18.3509 104.447 17.3561 101.864 17.3561C96.9049 17.3561 92.5405 21.6961 92.5822 29.1104C92.5822 35.983 96.5238 40.459 101.439 40.459C104.109 40.459 106.651 39.1921 107.923 36.7506H108.049L108.304 39.9616H114.025C113.94 38.4694 113.855 35.8925 113.855 33.3605V9.18896H107.413L107.414 9.18958ZM107.414 30.1508C107.414 30.6925 107.372 31.2361 107.286 31.6867C106.906 33.632 105.38 34.9869 103.516 34.9869C100.847 34.9869 99.1084 32.6366 99.1084 28.9294C99.1084 25.4488 100.593 22.6454 103.558 22.6454C105.55 22.6454 106.948 24.137 107.329 25.9899C107.414 26.3981 107.414 26.8505 107.414 27.2568V30.1501V30.1508Z" fill="#1971C2"/>
<path id="Vector_4" d="M133.258 39.9357V18.7405H126.816V39.9357H133.258H133.258ZM130.038 15.8472C132.284 15.8472 133.682 14.2196 133.682 12.1856C133.64 10.1055 132.284 8.52344 130.081 8.52344C127.876 8.52344 126.437 10.1055 126.437 12.1856C126.437 14.2196 127.834 15.8472 129.996 15.8472H130.038H130.038ZM136.823 39.9357H143.264V28.1007C143.264 27.4679 143.306 26.8338 143.476 26.382C143.941 25.1157 145.001 23.8051 146.781 23.8051C149.111 23.8051 150.044 25.7485 150.044 28.5982V39.9357H156.484V27.7831C156.484 21.2731 153.307 18.2438 149.069 18.2438C145.595 18.2438 144.069 20.3676 143.221 21.8142H143.264V18.7412H136.823C136.907 20.7296 136.823 39.9363 136.823 39.9363V39.9357Z" fill="white"/>
</g>
<defs>
<clipPath id="clip0_1_230">
<rect width="162.071" height="46.9383" fill="white" transform="translate(0.929443 0.643799)"/>
</clipPath>
</defs>
</svg>
